<?xml version="1.0" standalone="no"?>
<!DOCTYPE svg PUBLIC "-//W3C//DTD SVG 20010904//EN"
 "http://www.w3.org/TR/2001/REC-SVG-20010904/DTD/svg10.dtd">
<svg version="1.0" xmlns="http://www.w3.org/2000/svg"
 width="24.000000pt" height="24.000000pt" viewBox="0 0 24.000000 24.000000"
 preserveAspectRatio="xMidYMid meet">

<g transform="translate(0.000000,24.000000) scale(0.100000,-0.100000)"
fill="#000000" stroke="none">
<path d="M140 220 c0 -11 7 -20 15 -20 8 0 15 9 15 20 0 11 -7 20 -15 20 -8 0
-15 -9 -15 -20z"/>
<path d="M71 103 c-1 -6 -13 -14 -28 -16 -27 -4 -26 -4 4 -6 17 0 35 -5 38
-11 3 -5 11 -10 18 -10 6 0 4 6 -5 12 -9 7 -18 20 -21 28 -3 8 -6 10 -6 3z"/>
<path d="M160 98 c0 -9 -8 -22 -17 -27 -10 -6 -13 -11 -6 -11 6 0 15 5 18 10
3 6 21 11 38 11 28 2 29 2 7 6 -14 3 -28 10 -32 17 -5 7 -8 5 -8 -6z"/>
<path d="M110 30 c0 -11 5 -20 10 -20 6 0 10 9 10 20 0 11 -4 20 -10 20 -5 0
-10 -9 -10 -20z"/>
</g>
</svg>
