<?xml version="1.0" standalone="no"?>
<!DOCTYPE svg PUBLIC "-//W3C//DTD SVG 20010904//EN"
 "http://www.w3.org/TR/2001/REC-SVG-20010904/DTD/svg10.dtd">
<svg version="1.0" xmlns="http://www.w3.org/2000/svg"
 width="100.000000pt" height="100.000000pt" viewBox="0 0 100.000000 100.000000"
 preserveAspectRatio="xMidYMid meet">

<g transform="translate(0.000000,100.000000) scale(0.100000,-0.100000)"
fill="#000000" stroke="none">
<path d="M426 833 c-9 -13 -48 -39 -85 -57 -137 -69 -174 -160 -105 -253 23
-30 23 -34 13 -120 -13 -100 -7 -177 18 -228 17 -35 17 -35 85 -35 49 0 68 4
68 13 0 18 148 17 155 0 3 -9 27 -13 74 -13 l69 0 15 39 c24 59 29 127 18 225
-10 85 -10 89 13 120 69 90 31 183 -105 252 -37 18 -75 44 -85 56 -16 19 -29
23 -75 23 -46 1 -58 -3 -73 -22z m65 -31 l1 -27 7 25 c11 39 37 30 106 -36 64
-63 85 -98 67 -116 -12 -12 -72 -13 -129 -3 -39 7 -43 11 -43 36 0 15 -5 31
-11 35 -8 5 -10 -3 -5 -27 l6 -34 -52 -12 c-124 -28 -143 15 -48 108 33 32 60
62 60 67 0 4 9 8 20 9 15 1 20 -5 21 -25z m-125 -62 c-25 -27 -46 -58 -46 -70
0 -13 -7 -20 -19 -20 -32 0 -43 -24 -35 -82 7 -48 6 -52 -9 -40 -47 39 -42
125 11 175 22 21 125 84 141 86 2 1 -17 -21 -43 -49z m291 14 c96 -51 135
-112 113 -178 -6 -19 -18 -40 -26 -47 -14 -11 -15 -6 -12 47 3 53 1 60 -19 69
-13 5 -23 18 -23 29 0 11 -20 39 -45 63 -25 24 -43 43 -41 43 3 0 27 -11 53
-26z m-307 -134 c24 -7 52 -6 92 2 45 9 71 9 115 0 42 -9 67 -9 100 0 56 14
66 5 55 -53 -6 -30 -5 -56 4 -79 29 -80 6 -152 -58 -187 -42 -22 -214 -30
-276 -14 -64 18 -103 57 -109 111 -3 26 1 62 9 85 9 27 11 54 6 84 -11 64 -4
70 62 51z m-5 -329 c37 -17 45 -27 51 -56 3 -20 4 -39 0 -42 -3 -4 -31 -7 -61
-8 l-55 -2 -10 36 c-5 20 -10 63 -10 96 l0 60 21 -32 c11 -17 40 -41 64 -52z
m385 -57 l-11 -52 -55 3 c-31 2 -58 6 -61 9 -3 3 -2 21 1 41 6 29 14 39 40 50
19 8 47 28 62 45 l29 30 3 -37 c2 -21 -1 -61 -8 -89z m-137 4 c-3 -18 -10 -37
-15 -43 -5 -5 -40 -10 -78 -10 -76 0 -85 5 -95 53 l-7 32 101 0 101 0 -7 -32z
m-273 -68 c0 -5 -4 -10 -10 -10 -5 0 -10 5 -10 10 0 6 5 10 10 10 6 0 10 -4
10 -10z m40 0 c0 -5 -4 -10 -10 -10 -5 0 -10 5 -10 10 0 6 5 10 10 10 6 0 10
-4 10 -10z m40 0 c0 -5 -4 -10 -10 -10 -5 0 -10 5 -10 10 0 6 5 10 10 10 6 0
10 -4 10 -10z m225 0 c3 -5 -1 -10 -10 -10 -9 0 -13 5 -10 10 3 6 8 10 10 10
2 0 7 -4 10 -10z m40 0 c3 -5 -1 -10 -10 -10 -9 0 -13 5 -10 10 3 6 8 10 10
10 2 0 7 -4 10 -10z m35 0 c0 -5 -5 -10 -11 -10 -5 0 -7 5 -4 10 3 6 8 10 11
10 2 0 4 -4 4 -10z"/>
<path d="M514 557 c-18 -16 -25 -29 -21 -40 9 -25 33 -21 57 10 36 46 10 69
-36 30z m34 -17 c-16 -25 -35 -33 -44 -18 -8 13 34 51 47 42 5 -2 3 -14 -3
-24z"/>
<path d="M440 495 c0 -8 7 -15 15 -15 8 0 15 7 15 15 0 8 -7 15 -15 15 -8 0
-15 -7 -15 -15z"/>
<path d="M326 473 c-3 -3 -6 -13 -6 -22 0 -14 2 -14 10 -1 13 21 17 10 10 -30
-7 -35 -7 -35 -18 -10 -6 14 -11 18 -11 10 -1 -21 11 -38 29 -40 41 -6 90 1
90 13 0 26 -89 94 -104 80z"/>
<path d="M524 465 c-4 -9 -4 -18 -2 -21 9 -8 39 8 35 19 -6 18 -27 20 -33 2z"/>
<path d="M645 468 c-31 -17 -75 -60 -75 -75 0 -12 49 -19 90 -13 18 2 30 19
29 40 0 8 -5 4 -11 -10 -11 -25 -11 -25 -18 10 -7 40 -3 51 10 30 8 -13 10
-12 10 2 0 23 -12 28 -35 16z"/>
<path d="M380 330 c36 -5 77 -13 93 -19 19 -7 35 -7 55 0 15 6 56 14 92 19 59
7 61 7 19 9 -25 0 -67 -5 -92 -13 -40 -12 -54 -12 -94 0 -25 8 -67 13 -92 13
-42 -2 -40 -2 19 -9z"/>
</g>
</svg>
