<?xml version="1.0" standalone="no"?>
<!DOCTYPE svg PUBLIC "-//W3C//DTD SVG 20010904//EN"
 "http://www.w3.org/TR/2001/REC-SVG-20010904/DTD/svg10.dtd">
<svg version="1.0" xmlns="http://www.w3.org/2000/svg"
 width="100.000000pt" height="100.000000pt" viewBox="0 0 100.000000 100.000000"
 preserveAspectRatio="xMidYMid meet">

<g transform="translate(0.000000,100.000000) scale(0.100000,-0.100000)"
fill="#000000" stroke="none">
<path d="M525 856 c-43 -19 -83 -70 -90 -114 -3 -20 -8 -48 -11 -62 -3 -14 -8
-38 -11 -53 -4 -21 1 -34 17 -52 20 -22 21 -23 3 -27 -18 -4 -64 4 -95 17 -12
5 -18 3 -18 -5 0 -7 -7 -18 -15 -24 -23 -17 16 -74 65 -94 37 -16 40 -20 40
-57 0 -60 -8 -67 -55 -46 -56 25 -70 46 -71 105 0 28 -12 80 -25 116 -23 60
-27 65 -54 65 -28 0 -30 -3 -33 -39 -2 -22 -10 -49 -18 -60 -25 -36 -18 -85
17 -117 17 -16 42 -52 56 -80 29 -57 87 -105 139 -115 32 -6 33 -7 19 -27 -31
-45 -21 -57 50 -57 50 0 66 4 74 17 14 25 139 26 152 1 8 -14 23 -18 74 -18
56 0 65 3 65 18 0 10 -6 27 -14 37 -10 14 -11 26 -4 47 7 19 6 38 -2 60 -6 18
-15 55 -19 81 l-8 48 39 16 c39 16 78 55 78 79 0 25 -32 54 -49 44 -17 -8 -51
-13 -89 -11 -23 1 -23 1 4 25 27 23 28 24 16 77 -6 30 -14 71 -17 91 -14 94
-122 152 -210 114z m126 -29 c41 -27 69 -79 69 -130 0 -20 6 -46 12 -57 51
-82 -217 -127 -288 -49 -15 16 -15 25 -6 57 6 20 13 54 16 76 6 48 28 81 69
106 42 26 86 25 128 -3z m-426 -244 c4 -16 15 -47 26 -71 10 -23 18 -53 18
-65 -1 -20 -2 -20 -8 3 -10 39 -45 120 -53 120 -3 0 -9 -8 -11 -17 -3 -10 -5
-1 -6 20 -1 45 25 53 34 10z m214 -57 c41 11 232 13 277 2 27 -6 54 -6 77 0
28 8 39 7 47 -4 16 -18 -28 -62 -70 -70 -17 -4 -33 -10 -35 -14 -3 -5 0 -37 6
-72 17 -97 18 -200 3 -194 -8 3 -20 -1 -28 -9 -19 -20 -29 -19 -43 4 -10 16
-9 22 3 32 35 29 60 128 37 142 -5 3 -8 -17 -8 -44 0 -41 -5 -53 -31 -80 -60
-60 -164 -46 -199 28 -29 60 1 180 56 231 29 28 80 29 104 2 22 -24 43 -27 24
-3 -20 23 -66 41 -94 35 -35 -6 -73 -52 -95 -115 -27 -77 -26 -126 5 -172 33
-48 20 -103 -14 -61 -7 8 -21 12 -33 9 -17 -5 -19 -2 -14 14 4 11 2 32 -4 47
-7 20 -6 36 4 60 8 18 15 59 17 90 l4 58 -40 13 c-80 28 -97 95 -18 73 19 -5
47 -6 62 -2z m-212 -21 c17 -27 16 -35 -2 -29 -11 4 -19 -4 -27 -26 -10 -31
-12 -32 -25 -15 -15 22 -17 49 -3 75 12 23 42 21 57 -5z m69 -157 c11 -10 36
-24 55 -32 32 -13 35 -18 31 -50 -4 -33 -6 -34 -29 -25 -69 26 -133 115 -133
183 0 30 0 30 28 -15 16 -24 38 -52 48 -61z m121 -194 c-3 -3 -12 -4 -19 -1
-8 3 -5 6 6 6 11 1 17 -2 13 -5z m40 0 c-3 -3 -12 -4 -19 -1 -8 3 -5 6 6 6 11
1 17 -2 13 -5z"/>
<path d="M470 725 c-16 -47 -7 -65 29 -65 39 0 44 11 31 60 -14 53 -43 55 -60
5z m45 6 c3 -5 1 -12 -5 -16 -5 -3 -10 1 -10 9 0 18 6 21 15 7z"/>
<path d="M639 733 c-17 -45 -8 -68 26 -68 27 0 30 4 33 33 6 59 -40 86 -59 35z
m18 -15 c-3 -8 -6 -5 -6 6 -1 11 2 17 5 13 3 -3 4 -12 1 -19z"/>
<path d="M558 633 c7 -3 16 -2 19 1 4 3 -2 6 -13 5 -11 0 -14 -3 -6 -6z"/>
<path d="M454 612 c4 -7 93 -23 131 -23 38 0 127 16 131 23 4 6 -10 6 -33 2
-49 -10 -147 -10 -196 0 -23 4 -37 4 -33 -2z"/>
<path d="M681 420 c14 -31 19 -36 19 -24 0 6 -7 19 -16 30 -14 18 -14 18 -3
-6z"/>
<path d="M176 494 c-3 -9 -2 -23 4 -32 7 -14 9 -10 10 16 0 35 -5 41 -14 16z"/>
</g>
</svg>
