<?xml version="1.0" standalone="no"?>
<!DOCTYPE svg PUBLIC "-//W3C//DTD SVG 20010904//EN"
 "http://www.w3.org/TR/2001/REC-SVG-20010904/DTD/svg10.dtd">
<svg version="1.0" xmlns="http://www.w3.org/2000/svg"
 width="512.000000pt" height="512.000000pt" viewBox="0 0 512.000000 512.000000"
 preserveAspectRatio="xMidYMid meet">

<g transform="translate(0.000000,512.000000) scale(0.100000,-0.100000)"
fill="#000000" stroke="none">
<path d="M2644 4769 c-149 -20 -281 -131 -329 -278 -27 -81 -18 -217 19 -295
l29 -58 -166 -167 c-202 -204 -211 -218 -162 -266 49 -50 64 -41 255 150 l176
176 56 -26 c252 -115 529 28 579 300 48 262 -187 501 -457 464z m175 -176 c55
-27 104 -82 128 -146 31 -86 0 -202 -73 -266 -99 -87 -220 -93 -325 -16 -122
88 -136 276 -30 383 84 83 187 99 300 45z"/>
<path d="M710 798 c0 -140 3 -178 15 -195 18 -25 -13 -15 1093 -368 l742 -237
743 237 c1111 355 1074 343 1092 368 20 29 23 372 3 364 -7 -2 -424 -136 -925
-296 l-913 -292 -912 292 c-502 160 -919 294 -925 296 -10 4 -13 -34 -13 -169z"/>
</g>
</svg>
