<?xml version="1.0" standalone="no"?>
<!DOCTYPE svg PUBLIC "-//W3C//DTD SVG 20010904//EN"
 "http://www.w3.org/TR/2001/REC-SVG-20010904/DTD/svg10.dtd">
<svg version="1.0" xmlns="http://www.w3.org/2000/svg"
 width="100.000000pt" height="100.000000pt" viewBox="0 0 100.000000 100.000000"
 preserveAspectRatio="xMidYMid meet">

<g transform="translate(0.000000,100.000000) scale(0.100000,-0.100000)"
fill="#000000" stroke="none">
<path d="M382 879 c-47 -14 -109 -79 -122 -131 -7 -23 -9 -61 -5 -83 12 -75
11 -80 -13 -83 -12 -2 -36 3 -53 12 -27 14 -32 13 -48 -3 -35 -35 -34 -51 10
-90 37 -33 41 -41 44 -92 2 -30 10 -72 19 -93 19 -46 12 -110 -16 -138 -10
-10 -18 -27 -18 -38 0 -18 7 -20 73 -20 74 0 97 9 97 39 0 13 15 16 90 16 59
0 90 -4 90 -11 0 -6 8 -18 18 -27 22 -20 146 -24 158 -6 3 6 -3 23 -13 38 -41
54 -38 65 20 89 29 12 68 22 87 22 84 1 121 100 61 160 -38 39 -75 47 -128 28
-24 -9 -43 -13 -43 -11 0 8 59 60 74 66 13 5 13 10 0 35 -23 47 -37 54 -70 37
-36 -19 -58 -19 -73 -1 -9 11 -9 20 -2 35 14 25 14 102 0 138 -15 40 -57 82
-104 104 -44 20 -82 22 -133 8z m107 -19 c39 -11 86 -51 107 -92 8 -15 14 -49
14 -76 0 -85 -57 -133 -159 -134 -75 -1 -126 17 -151 53 -58 80 -21 197 74
240 47 21 67 23 115 9z m-174 -280 c4 -6 1 -17 -5 -25 -9 -11 -17 -12 -32 -4
-15 8 -17 13 -7 25 14 16 35 18 44 4z m295 -5 c10 -12 9 -16 -5 -21 -19 -8
-40 9 -31 25 10 15 21 14 36 -4z m-373 -19 c28 -9 54 -24 57 -32 9 -24 -22
-73 -45 -74 -4 0 -30 21 -58 46 -44 39 -49 48 -40 66 6 11 16 18 22 15 7 -2
35 -12 64 -21z m503 -7 c0 -10 -22 -36 -51 -59 -47 -37 -53 -39 -73 -27 -13 9
-21 25 -21 43 0 26 6 31 60 50 65 23 85 22 85 -7z m-285 -1 c28 2 63 4 79 5
18 1 33 -4 40 -15 15 -24 0 -36 -55 -47 -34 -7 -37 -9 -14 -9 17 0 39 3 50 7
14 6 24 2 38 -16 18 -23 18 -24 -2 -57 -30 -47 -42 -55 -95 -62 l-46 -7 0 67
c0 36 -3 66 -7 66 -5 0 -6 -29 -5 -65 l4 -65 -34 -2 -33 -1 33 -4 c31 -4 32
-6 32 -48 0 -42 -2 -46 -40 -65 -50 -26 -50 -26 -50 9 0 20 -9 36 -26 50 -22
17 -23 22 -12 40 7 12 24 22 38 22 22 2 22 2 3 6 -11 2 -33 22 -48 45 -24 36
-26 43 -14 65 12 22 17 24 68 19 l56 -5 -51 10 c-37 7 -53 16 -57 29 -8 30 13
42 58 33 22 -4 63 -7 90 -5z m200 -215 c-9 -24 -21 -41 -25 -38 -5 3 -5 17 0
31 6 14 10 44 10 68 0 23 6 48 13 55 20 20 21 -65 2 -116z m186 98 c65 -65 9
-157 -75 -125 -26 10 -40 43 -25 60 19 23 49 18 49 -8 0 -18 2 -20 9 -9 23 37
-28 62 -61 29 -13 -13 -18 -27 -13 -41 13 -44 10 -51 -25 -63 -19 -7 -38 -10
-42 -8 -4 3 2 23 12 47 11 23 20 57 20 75 0 26 7 36 33 52 46 28 83 26 118 -9z
m-592 -11 l4 -25 6 24 c6 23 7 22 34 -17 28 -39 28 -41 11 -67 -21 -32 -37
-28 -45 11 -6 24 -6 22 -4 -8 6 -79 -32 -19 -42 65 -5 44 -4 49 13 45 11 -2
21 -14 23 -28z m381 -22 c0 -53 -9 -88 -23 -88 -12 0 -36 31 -37 48 0 15 42
82 53 82 4 0 7 -19 7 -42z m-56 -70 c15 -21 15 -23 -8 -35 -28 -14 -39 -38
-31 -64 7 -22 -1 -23 -35 -4 -14 8 -29 14 -35 14 -5 0 6 -8 25 -19 36 -19 34
-22 -20 -34 -29 -6 -100 3 -100 14 0 4 18 15 40 25 39 17 40 20 40 66 0 46 1
48 33 52 67 8 76 7 91 -15z m-250 -51 c17 -12 18 -21 10 -73 l-9 -59 -62 -3
c-64 -3 -81 8 -43 28 11 6 20 21 20 34 0 13 5 37 11 55 12 34 41 41 73 18z
m304 -4 c5 -10 12 -34 16 -54 4 -21 13 -42 21 -49 27 -22 16 -30 -39 -30 -62
0 -71 8 -79 70 -4 33 -2 49 10 62 21 23 60 23 71 1z"/>
<path d="M322 778 c-15 -19 -23 -71 -13 -86 4 -8 21 -12 37 -10 23 2 30 8 32
31 3 28 -20 77 -37 77 -5 0 -13 -6 -19 -12z m38 -28 c0 -5 -4 -10 -10 -10 -5
0 -10 5 -10 10 0 6 5 10 10 10 6 0 10 -4 10 -10z"/>
<path d="M521 776 c-7 -8 -11 -32 -9 -53 3 -35 5 -38 33 -38 27 0 30 3 33 36
2 24 -3 42 -13 53 -20 20 -29 20 -44 2z m16 -28 c-3 -8 -6 -5 -6 6 -1 11 2 17
5 13 3 -3 4 -12 1 -19z"/>
<path d="M324 635 c35 -26 246 -22 246 5 0 6 -11 5 -27 -1 -37 -14 -176 -14
-202 0 -29 16 -39 13 -17 -4z"/>
</g>
</svg>
